<mxfile host="app.diagrams.net" modified="2020-05-29T19:35:59.153Z" agent="5.0 (Windows NT 10.0; Win64; x64) AppleWebKit/537.36 (KHTML, like Gecko) Chrome/83.0.4103.61 Safari/537.36" etag="_cbqFjDX8sjjWtQA9o8t" version="13.1.6" type="github">
  <diagram id="WqBt7VgMJW42kfdqnNc5" name="Page-1">
    <mxGraphModel dx="953" dy="1062" grid="1" gridSize="10" guides="1" tooltips="1" connect="1" arrows="1" fold="1" page="1" pageScale="1" pageWidth="827" pageHeight="1169" math="0" shadow="0">
      <root>
        <mxCell id="0" />
        <mxCell id="1" parent="0" />
      </root>
    </mxGraphModel>
  </diagram>
</mxfile>
